{"accessors":[{"bufferView":0,"componentType":5126,"count":1722,"max":[0.0930686891078949,0.22274808585643768,0.09306880831718445],"min":[-0.093068927526474,-0.5921704769134521,-0.09306880831718445],"normalized":false,"type":"VEC3"},{"bufferView":1,"componentType":5126,"count":1722,"max":[1.0,0.4167683720588684,1.0,1.0],"min":[-1.0,-0.8006651997566223,-1.0,-1.0],"normalized":false,"type":"VEC4"},{"bufferView":2,"componentType":5126,"count":1722,"max":[1.0,1.0,1.0],"min":[-1.0,-1.0,-1.0],"normalized":false,"type":"VEC3"},{"bufferView":3,"componentType":5126,"count":1722,"max":[1.0,1.0],"min":[0.0,0.0],"normalized":false,"type":"VEC2"},{"bufferView":4,"componentType":5123,"count":1722,"max":[1721],"min":[0],"normalized":false,"type":"SCALAR"},{"bufferView":5,"componentType":5126,"count":4242,"max":[0.3250015676021576,0.8962668180465698,0.39080744981765747],"min":[-0.3250015676021576,-1.1365041732788086,-0.2946194112300873],"normalized":false,"type":"VEC3"},{"bufferView":6,"componentType":5126,"count":4242,"max":[1.0,0.47564810514450073,1.0,1.0],"min":[-1.0,-1.0,-1.0,-1.0],"normalized":false,"type":"VEC4"},{"bufferView":7,"componentType":5126,"count":4242,"max":[1.0,1.0,1.0],"min":[-1.0,-1.0,-1.0],"normalized":false,"type":"VEC3"},{"bufferView":8,"componentType":5126,"count":4242,"max":[1.0,1.0],"min":[0.0,0.0],"normalized":false,"type":"VEC2"},{"bufferView":9,"componentType":5123,"count":4242,"max":[4241],"min":[0],"normalized":false,"type":"SCALAR"}],"asset":{"generator":"Godot Engine v4.6.3.stable.mono.official@7d41c59c457bd5a245092b4e7eb2d833e3b3f8c3","version":"2.0"},"bufferViews":[{"buffer":0,"byteLength":20664,"byteStride":12,"target":34962},{"buffer":0,"byteLength":27552,"byteOffset":20664,"byteStride":16,"target":34962},{"buffer":0,"byteLength":20664,"byteOffset":48216,"byteStride":12,"target":34962},{"buffer":0,"byteLength":13776,"byteOffset":68880,"byteStride":8,"target":34962},{"buffer":0,"byteLength":3444,"byteOffset":82656,"target":34963},{"buffer":0,"byteLength":50904,"byteOffset":86100,"byteStride":12,"target":34962},{"buffer":0,"byteLength":67872,"byteOffset":137004,"byteStride":16,"target":34962},{"buffer":0,"byteLength":50904,"byteOffset":204876,"byteStride":12,"target":34962},{"buffer":0,"byteLength":33936,"byteOffset":255780,"byteStride":8,"target":34962},{"buffer":0,"byteLength":8484,"byteOffset":289716,"target":34963}],"buffers":[{"byteLength":298200,"uri":"base_character0.bin"}],"extensionsUsed":["GODOT_single_root"],"materials":[{},{},{}],"meshes":[{"name":"RightArm2","primitives":[{"attributes":{"NORMAL":2,"POSITION":0,"TANGENT":1,"TEXCOORD_0":3},"indices":4,"material":0,"mode":4}]},{"name":"LeftArm2","primitives":[{"attributes":{"NORMAL":2,"POSITION":0,"TANGENT":1,"TEXCOORD_0":3},"indices":4,"material":1,"mode":4}]},{"name":"Torso2","primitives":[{"attributes":{"NORMAL":7,"POSITION":5,"TANGENT":6,"TEXCOORD_0":8},"indices":9,"material":2,"mode":4}]}],"nodes":[{"children":[1,6,11],"name":"Node3D"},{"children":[2,3,4,5],"mesh":0,"name":"RightArm2","rotation":[0.0,0.0,-0.36682841181755066,0.9302886128425598],"translation":[-0.4000000059604645,0.17556023597717285,-0.02387756109237671]},{"name":"CSGSphere3D","translation":[-1.1920928955078125e-07,-0.12495487928390503,0.0]},{"name":"CSGSphere3D3","translation":[-1.1920928955078125e-07,0.16588813066482544,0.0]},{"name":"CSGSphere3D2","translation":[-1.1920928955078125e-07,-0.4991016983985901,0.0]},{"name":"CSGCylinder3D5","translation":[0.0,-0.30000001192092896,0.0]},{"children":[7,8,9,10],"mesh":1,"name":"LeftArm2","rotation":[0.0,0.0,0.36682844161987305,0.9302886128425598],"translation":[0.4000000059604645,0.17556023597717285,-0.02387756109237671]},{"name":"CSGSphere3D4","translation":[-1.1920928955078125e-07,-0.12495487928390503,0.0]},{"name":"CSGSphere3D32","translation":[-1.1920928955078125e-07,0.16588813066482544,0.0]},{"name":"CSGSphere3D22","translation":[-1.1920928955078125e-07,-0.4991016983985901,0.0]},{"name":"CSGCylinder3D52","translation":[0.0,-0.30000001192092896,0.0]},{"children":[12,15,16,33,50],"mesh":2,"name":"Torso2"},{"children":[13,14],"name":"Neck","translation":[0.0,0.32727813720703125,0.0]},{"name":"CSGSphere3D42","scale":[1.0,0.49027377367019653,1.0],"translation":[-1.1920928955078125e-07,0.02252185344696045,0.0]},{"name":"CSGSphere3D33","translation":[-1.1920928955078125e-07,-0.05216193199157715,0.0]},{"name":"CSGTorus3D","scale":[1.121999979019165,6.359000205993652,1.0],"translation":[0.0,0.09622323513031006,0.0]},{"children":[17,20],"name":"LeftLeg","translation":[0.20000001788139343,-0.9104851484298706,0.0]},{"children":[18,19],"name":"CSGCylinder3D2","translation":[0.0,0.4543360769748688,0.0]},{"name":"CSGSphere3D5","translation":[0.0,-0.23164349794387817,0.0]},{"name":"CSGSphere3D23","translation":[0.0,0.21039903163909912,0.0]},{"children":[21,24,27,30],"name":"CSGBox3D2","translation":[-2.9802322387695313e-08,-0.17499998211860657,0.15000000596046448]},{"children":[22,23],"name":"CSGSphere3D6","translation":[0.0,0.0,0.11829043924808502]},{"name":"CSGBox3D3","translation":[0.0055297911167144775,0.09999999403953552,-0.06584903597831726]},{"name":"CSGBox3D4","translation":[0.0055297911167144775,-0.1010189801454544,-0.06584903597831726]},{"children":[25,26],"name":"CSGSphere3D24","translation":[0.0,0.0,0.053306080400943756]},{"name":"CSGBox3D32","translation":[0.0055297911167144775,0.09999999403953552,-0.06584903597831726]},{"name":"CSGBox3D42","translation":[0.0055297911167144775,-0.1010189801454544,-0.06584903597831726]},{"children":[28,29],"name":"CSGSphere3D34","translation":[0.0,0.0,-0.04127421975135803]},{"name":"CSGBox3D33","translation":[0.0055297911167144775,0.09999999403953552,-0.06584903597831726]},{"name":"CSGBox3D43","translation":[0.0055297911167144775,-0.1010189801454544,-0.06584903597831726]},{"children":[31,32],"name":"CSGSphere3D43","translation":[0.0,0.0,-0.14151138067245483]},{"name":"CSGBox3D34","translation":[0.0055297911167144775,0.09999999403953552,-0.06584903597831726]},{"name":"CSGBox3D44","translation":[0.0055297911167144775,-0.1010189801454544,-0.06584903597831726]},{"children":[34,37],"name":"RightLeg","translation":[-0.20000001788139343,-0.9104851484298706,0.0]},{"children":[35,36],"name":"CSGCylinder3D22","translation":[0.0,0.4543360769748688,0.0]},{"name":"CSGSphere3D7","translation":[0.0,-0.23164349794387817,0.0]},{"name":"CSGSphere3D25","translation":[0.0,0.21039903163909912,0.0]},{"children":[38,41,44,47],"name":"CSGBox3D","translation":[-2.9802322387695313e-08,-0.17499998211860657,0.15000000596046448]},{"children":[39,40],"name":"CSGSphere3D8","translation":[0.0,0.0,0.11829043924808502]},{"name":"CSGBox3D35","translation":[0.0055297911167144775,0.09999999403953552,-0.06584903597831726]},{"name":"CSGBox3D45","translation":[0.0055297911167144775,-0.1010189801454544,-0.06584903597831726]},{"children":[42,43],"name":"CSGSphere3D26","translation":[0.0,0.0,0.053306080400943756]},{"name":"CSGBox3D36","translation":[0.0055297911167144775,0.09999999403953552,-0.06584903597831726]},{"name":"CSGBox3D46","translation":[0.0055297911167144775,-0.1010189801454544,-0.06584903597831726]},{"children":[45,46],"name":"CSGSphere3D35","translation":[0.0,0.0,-0.04127421975135803]},{"name":"CSGBox3D37","translation":[0.0055297911167144775,0.09999999403953552,-0.06584903597831726]},{"name":"CSGBox3D47","translation":[0.0055297911167144775,-0.1010189801454544,-0.06584903597831726]},{"children":[48,49],"name":"CSGSphere3D44","translation":[0.0,0.0,-0.14151138067245483]},{"name":"CSGBox3D38","translation":[0.0055297911167144775,0.09999999403953552,-0.06584903597831726]},{"name":"CSGBox3D48","translation":[0.0055297911167144775,-0.1010189801454544,-0.06584903597831726]},{"name":"Head","translation":[0.0,0.6016473770141602,0.0]}],"scene":0,"scenes":[{"nodes":[0]}]}